<svg xmlns="http://www.w3.org/2000/svg" viewBox="0 0 25 27"><g id="Layer_2" data-name="Layer 2"><g id="Layer_1-2" data-name="Layer 1"><path d="M23.87,6a1.72,1.72,0,0,0-1.39.06,1.56,1.56,0,0,0-.87,1L20.4,13.52a0,0,0,0,1,0,0l-.59-.25,0,0,.81-9.36a1.88,1.88,0,0,0-1.74-2,1.86,1.86,0,0,0-1.43.43,1.84,1.84,0,0,0-.68,1.28l-.87,7.69a0,0,0,0,1,0,0l-.59-.09,0,0,.34-9.43A1.91,1.91,0,0,0,13.58,0h-.06A1.9,1.9,0,0,0,11.6,1.86L11,11.14s0,0,0,0l-.65,0s0,0,0,0L10,3.69V3.6a1.78,1.78,0,0,0-.71-1.22A1.94,1.94,0,0,0,7.91,2L7.69,2A1.94,1.94,0,0,0,6,4.06l.1,11.68-.5.12L3.81,11.44v0A2,2,0,0,0,2,10.31a2,2,0,0,0-1.7.92,2.18,2.18,0,0,0-.25,1.64c.31,1.19.74,2.78,1.12,4.06V17A19.49,19.49,0,0,0,2,19.34,14.35,14.35,0,0,0,6.51,25,9.77,9.77,0,0,0,13,27a10.24,10.24,0,0,0,3.07-.46,10.91,10.91,0,0,0,7.07-6.71C24.15,17.21,24.87,9.06,25,8A1.71,1.71,0,0,0,23.87,6Z" fill="#5b38d8"/></g></g></svg>