<svg xmlns="http://www.w3.org/2000/svg" viewBox="0 0 21.71 20.11"><g id="Layer_2" data-name="Layer 2"><g id="Layer_1-2" data-name="Layer 1"><path d="M2.39,10.45v9a.62.62,0,0,0,.18.44.63.63,0,0,0,.45.18H8.07V13.47A.67.67,0,0,1,8.25,13a.63.63,0,0,1,.45-.18H13a.63.63,0,0,1,.45.18.67.67,0,0,1,.18.44v6.64H18.7a.61.61,0,0,0,.62-.62V10.43L10.76,3.78Z" fill="#5b38d8"/><path d="M21.22,7.64,11.62.26a1.25,1.25,0,0,0-1.53,0L5,4.22v-2H2.43V6.15L.49,7.64A1.26,1.26,0,0,0,.26,9.4a1.24,1.24,0,0,0,1,.49,1.39,1.39,0,0,0,.4-.06l8.81-7a.45.45,0,0,1,.58,0l9,7a1.24,1.24,0,0,0,1.38-.43,1.26,1.26,0,0,0-.23-1.76Z" fill="#5b38d8"/></g></g></svg>