<svg xmlns="http://www.w3.org/2000/svg" viewBox="0 0 18.67 18.67"><g id="Layer_2" data-name="Layer 2"><g id="Layer_1-2" data-name="Layer 1"><path d="M9.35,0A9.33,9.33,0,0,0,1.24,13.92L0,18a.51.51,0,0,0,.09.46.51.51,0,0,0,.43.2.33.33,0,0,0,.14,0l4.08-1.2h0a9.31,9.31,0,0,0,5.47,1.16A9.34,9.34,0,0,0,18.1,6.12,9.34,9.34,0,0,0,9.35,0ZM4.69,10.89a1.55,1.55,0,0,1-1.1-.46,1.55,1.55,0,0,1,0-2.2,1.54,1.54,0,0,1,1.1-.45,1.56,1.56,0,0,1,0,3.11Zm4.66,0a1.59,1.59,0,0,1-1.1-.46,1.57,1.57,0,0,1,0-2.2,1.58,1.58,0,0,1,1.1-.45,1.56,1.56,0,0,1,0,3.11Zm4.67,0a1.57,1.57,0,1,1,1.1-.46A1.57,1.57,0,0,1,14,10.89Z" fill="#5b38d8"/></g></g></svg>