<svg xmlns="http://www.w3.org/2000/svg" width="292" height="40" fill="none" viewBox="0 0 292 40">
  <path fill="#000" d="M5.11 38.778A5.108 5.108 0 010 33.672V7.763a5.111 5.111 0 0110.22 0v25.909a5.108 5.108 0 01-5.11 5.106zm19.765-14.087H9.498v-8.464h15.381v8.464h-.004zm4.388-22.038a5.111 5.111 0 015.11 5.11v25.909a5.111 5.111 0 01-10.22 0V7.763a5.111 5.111 0 015.11-5.11zM51.506 39.244c-2.237 0-4.127-.379-5.678-1.137-1.547-.757-2.726-1.787-3.535-3.097-.81-1.306-1.212-2.77-1.212-4.388 0-1.72.438-3.208 1.318-4.463.876-1.255 2.226-2.217 4.053-2.888 1.823-.671 4.178-1.006 7.07-1.006h6.606v5.11h-5.264c-1.582 0-2.69.256-3.33.773-.635.517-.955 1.203-.955 2.064 0 .86.328 1.546.979 2.063.655.517 1.547.774 2.683.774 1.065 0 2.04-.265 2.916-.801.876-.533 1.523-1.35 1.934-2.45l1.341 3.614c-.517 1.925-1.523 3.382-3.019 4.36-1.495.983-3.464 1.472-5.907 1.472z"/>
  <path fill="#000" d="M59.765 34v-.146c0-.478-.114-.51-.335-.931a2.967 2.967 0 01-.335-1.374v-8.87c0-1.547-.474-2.743-1.421-3.587-.947-.845-2.45-1.263-4.514-1.263-1.342 0-2.703.217-4.076.643-.23.071-.454.15-.671.23-1.74.642-3.682-.15-4.506-1.812a3.67 3.67 0 012.063-5.09 23.966 23.966 0 012.005-.608 26.65 26.65 0 016.633-.852c4.542 0 8.058 1.042 10.555 3.121 2.494 2.083 3.741 5.343 3.741 9.778v11.562a4.486 4.486 0 01-4.486 4.486h-.166c-2.482.004-4.487-2.81-4.487-5.287zM94.857 10.344c2.166 0 4.127.438 5.883 1.318 1.756.875 3.141 2.229 4.155 4.052 1.014 1.823 1.523 4.179 1.523 7.071v11.096a4.905 4.905 0 11-9.81 0v-9.498c.036-.627-.007-1.641-.528-2.695-.908-1.83-2.79-2.849-4.25-2.932-1.026-.059-1.941.273-1.941.273a5.032 5.032 0 00-.71.323s-.786.422-1.382 1.014c-.698.695-1.42 2.522-1.357 4.893v8.618a4.905 4.905 0 11-9.81 0v-18.4a4.671 4.671 0 119.344 0v3.28l-1.807-2.325c1.066-2.028 2.53-3.551 4.388-4.565 1.862-1.015 3.962-1.524 6.302-1.524zM126.649 39.244c-2.545 0-4.861-.592-6.941-1.78-2.083-1.187-3.741-2.856-4.98-5.007-1.239-2.15-1.858-4.723-1.858-7.714 0-2.96.619-5.513 1.858-7.663 1.239-2.15 2.897-3.812 4.98-4.98 2.08-1.168 4.396-1.756 6.941-1.756 2.407 0 4.447.517 6.116 1.547 1.669 1.034 2.932 2.616 3.792 4.747.861 2.134 1.291 4.833 1.291 8.1 0 3.34-.415 6.074-1.239 8.208-.825 2.135-2.064 3.717-3.717 4.747-1.65 1.034-3.733 1.551-6.243 1.551zm2.064-7.793c1.101 0 2.091-.257 2.967-.774.876-.517 1.575-1.282 2.092-2.296.516-1.014.773-2.226.773-3.638 0-1.409-.257-2.605-.773-3.587-.517-.979-1.212-1.729-2.092-2.245-.876-.517-1.866-.774-2.967-.774-1.137 0-2.143.257-3.019.774-.876.516-1.574 1.262-2.091 2.245-.517.982-.774 2.178-.774 3.587 0 1.412.257 2.624.774 3.638.517 1.014 1.211 1.78 2.091 2.296.88.517 1.882.774 3.019.774zm10.812 7.328a4.671 4.671 0 01-4.672-4.673v-.13l.051-9.237-.517-9.238V5.388a4.905 4.905 0 019.81 0v28.718a4.675 4.675 0 01-4.672 4.672zM162.206 39.244a29.228 29.228 0 01-8.677-1.302 3.623 3.623 0 01-2.245-4.92 3.624 3.624 0 014.514-1.97c.497.174 1.018.332 1.558.478 1.756.465 3.477.698 5.162.698 1.653 0 2.793-.174 3.433-.517.635-.343.955-.809.955-1.393 0-.548-.3-.955-.904-1.211-.604-.257-1.393-.454-2.376-.592-.978-.138-2.055-.292-3.223-.466a37.316 37.316 0 01-3.536-.698 11.31 11.31 0 01-3.251-1.342 6.697 6.697 0 01-2.348-2.45c-.584-1.034-.876-2.34-.876-3.922 0-1.788.525-3.382 1.574-4.775 1.05-1.393 2.589-2.494 4.621-3.303 2.028-.809 4.506-1.211 7.43-1.211 1.961 0 3.95.197 5.962.592.419.083.821.173 1.212.272 2.135.545 3.263 2.888 2.371 4.905-.734 1.665-2.608 2.521-4.34 1.965-.411-.13-.821-.24-1.227-.328-1.377-.292-2.684-.438-3.923-.438-1.653 0-2.813.19-3.484.569-.671.378-1.006.844-1.006 1.392 0 .553.292.971.876 1.263.584.292 1.369.517 2.348.671.982.154 2.056.308 3.224.466a28.7 28.7 0 013.535.698c1.188.308 2.269.766 3.252 1.37a6.79 6.79 0 012.347 2.426c.584 1.014.876 2.316.876 3.895 0 1.72-.524 3.267-1.574 4.644-1.05 1.377-2.596 2.478-4.644 3.303-2.052.817-4.59 1.231-7.616 1.231zM178.878 15.505a3.666 3.666 0 013.666-3.666h12.954a3.667 3.667 0 010 7.332H182.54a3.665 3.665 0 01-3.662-3.666zm8.977 23.273a4.905 4.905 0 01-4.905-4.904v-22.76c0-3.37 1.006-6.066 3.019-8.078 2.012-2.012 4.893-3.019 8.645-3.019 1.204 0 2.391.123 3.559.363.012.004.024.004.036.008 1.622.34 2.569 2.04 2.02 3.603l-.659 1.882a2.759 2.759 0 01-3.2 1.776c-.268-.06-2.154-.26-3.019.809-.568.603-.852 1.523-.852 2.762v2.012l.257 4.076v16.566a4.899 4.899 0 01-4.901 4.904zM204.68 33.877v-18.4a4.672 4.672 0 119.344 0v3.485l-1.393-2.324c.825-2.1 2.167-3.674 4.025-4.724 1.582-.891 3.449-1.404 5.603-1.539a1.084 1.084 0 011.157 1.082v6.499c0 .623-.529 1.116-1.153 1.08h-.008a21.702 21.702 0 00-1.057-.027c-1.997 0-3.615.54-4.85 1.626-1.239 1.085-1.858 2.849-1.858 5.291v7.948a4.904 4.904 0 01-4.901 4.904 4.902 4.902 0 01-4.909-4.9zM243.386 39.244c-3.303 0-6.183-.628-8.645-1.883-2.459-1.254-4.369-2.975-5.73-5.16-1.361-2.187-2.04-4.673-2.04-7.459 0-2.786.663-5.271 1.989-7.458 1.326-2.186 3.156-3.886 5.496-5.11 2.34-1.219 4.972-1.83 7.896-1.83 2.751 0 5.264.56 7.537 1.677 2.269 1.116 4.076 2.762 5.418 4.928 1.341 2.166 2.012 4.798 2.012 7.896 0 .343-.016.742-.051 1.188v.011a1.329 1.329 0 01-1.326 1.224h-20.917v-5.162h16.928l-3.717 1.445c.035-1.271-.198-2.376-.699-3.303-.501-.928-1.188-1.654-2.064-2.167-.876-.516-1.901-.773-3.069-.773s-2.194.257-3.07.773a5.247 5.247 0 00-2.04 2.195c-.482.947-.723 2.055-.723 3.33V25.1c0 1.378.285 2.565.853 3.56.568.998 1.385 1.763 2.45 2.296 1.066.533 2.34.801 3.82.801 1.377 0 2.553-.197 3.535-.592.225-.09.45-.193.671-.304a3.791 3.791 0 014.447.766c1.808 1.878 1.231 4.972-1.128 6.08-.284.135-.572.261-.868.376-1.958.773-4.282 1.16-6.965 1.16zM278.067 39.244c-3.303 0-6.183-.628-8.646-1.883-2.458-1.254-4.368-2.975-5.729-5.16-1.362-2.187-2.04-4.673-2.04-7.459 0-2.786.663-5.271 1.988-7.458 1.326-2.186 3.157-3.886 5.497-5.11 2.34-1.219 4.972-1.83 7.896-1.83 2.75 0 5.264.56 7.537 1.677 2.269 1.116 4.076 2.762 5.418 4.928 1.341 2.166 2.012 4.798 2.012 7.896 0 .343-.016.742-.051 1.188v.011a1.33 1.33 0 01-1.326 1.224h-20.918v-5.162h16.928l-3.717 1.445c.036-1.271-.197-2.376-.698-3.303-.501-.928-1.188-1.654-2.064-2.167-.876-.516-1.902-.773-3.07-.773s-2.194.257-3.07.773a5.253 5.253 0 00-2.04 2.195c-.481.947-.722 2.055-.722 3.33V25.1c0 1.378.284 2.565.853 3.56.568.998 1.385 1.763 2.45 2.296 1.065.533 2.34.801 3.82.801 1.377 0 2.553-.197 3.535-.592.225-.09.45-.193.671-.304a3.791 3.791 0 014.447.766c1.807 1.878 1.231 4.972-1.128 6.08-.285.135-.573.261-.869.376-1.957.773-4.281 1.16-6.964 1.16z"/>
</svg>
